<?xml version="1.0" standalone="no"?>
<!DOCTYPE svg PUBLIC "-//W3C//DTD SVG 20010904//EN"
 "http://www.w3.org/TR/2001/REC-SVG-20010904/DTD/svg10.dtd">
<svg version="1.0" xmlns="http://www.w3.org/2000/svg"
 width="32.000000pt" height="32.000000pt" viewBox="0 0 32.000000 32.000000"
 preserveAspectRatio="xMidYMid meet">

<g transform="translate(0.000000,32.000000) scale(0.100000,-0.100000)"
fill="#fff" stroke="none">
<path d="M180 269 c-25 -26 -31 -38 -28 -68 3 -36 3 -36 -33 -33 -30 3 -42 -3
-68 -28 -17 -17 -31 -42 -31 -54 0 -28 39 -66 67 -66 27 0 83 55 83 81 0 27
-7 24 -25 -11 -9 -17 -27 -36 -41 -42 -21 -10 -28 -8 -46 10 -19 18 -20 25
-10 47 12 26 57 53 68 42 4 -4 1 -13 -6 -22 -7 -9 -10 -19 -6 -22 4 -4 32 18
63 50 32 31 54 59 50 63 -3 4 -13 1 -22 -6 -9 -7 -18 -10 -22 -6 -11 11 16 56
42 68 22 10 29 9 47 -10 18 -18 20 -25 10 -46 -6 -14 -25 -32 -42 -41 -35 -18
-38 -25 -11 -25 27 0 81 57 81 84 0 28 -39 66 -67 66 -12 0 -36 -14 -53 -31z"/>
</g>
</svg>
